<?xml version="1.0" encoding="UTF-8"?>
<svg version="1.1" viewBox="0 0 32 32" xmlns="http://www.w3.org/2000/svg">
<g id="atom">
<path d="m22.622 25.381c-0.132 0.493-0.341 0.824-0.621 0.986-0.815 0.465-2.571-0.266-4.622-2.186 0.673-0.753 1.327-1.575 1.949-2.438 0.508-0.705 0.99-1.44 1.444-2.189 0.12-0.198 0.242-0.396 0.358-0.596 0.117-0.203 0.216-0.406 0.329-0.609 0.133 0.343 0.257 0.681 0.371 1.016 0.704-0.142 1.357-0.306 1.952-0.487-0.31-0.934-0.695-1.897-1.141-2.877 0.446-0.98 0.831-1.943 1.141-2.877 0.219-0.661 0.398-1.301 0.544-1.923 0.472-2.002 0.581-3.782 0.229-5.098-0.271-1.01-0.809-1.771-1.556-2.202-1.908-1.101-4.497 0.141-6.999 2.501-2.501-2.36-5.09-3.602-6.999-2.502-0.747 0.43-1.285 1.191-1.555 2.201-0.353 1.316-0.244 3.096 0.228 5.098 0.618-0.184 1.267-0.346 1.94-0.485-0.392-1.653-0.504-3.097-0.237-4.095 0.133-0.493 0.342-0.825 0.622-0.986 0.814-0.47 2.572 0.263 4.624 2.187-0.672 0.752-1.324 1.573-1.945 2.436-0.509 0.706-0.993 1.439-1.448 2.189-0.121 0.199-0.245 0.396-0.361 0.596-0.117 0.203-0.216 0.406-0.328 0.608-0.133-0.343-0.257-0.681-0.371-1.015-0.704 0.142-1.357 0.306-1.952 0.487 0.31 0.934 0.695 1.897 1.14 2.877-0.446 0.98-0.831 1.943-1.141 2.877-0.219 0.661-0.397 1.301-0.544 1.923-0.472 2.002-0.581 3.782-0.228 5.098 0.271 1.01 0.809 1.771 1.555 2.201 0.48 0.277 1.004 0.406 1.559 0.406 1.648 0 3.568-1.137 5.44-2.903 1.872 1.765 3.793 2.903 5.441 2.903 0.555 0 1.078-0.129 1.559-0.406 0.747-0.43 1.284-1.191 1.556-2.201 0.352-1.316 0.244-3.096-0.229-5.098-0.618 0.184-1.267 0.346-1.94 0.485 0.392 1.656 0.504 3.1 0.236 4.098zm-12.623 0.986c-0.28-0.162-0.489-0.493-0.622-0.986-0.267-0.998-0.156-2.442 0.237-4.095 0.146-0.615 0.33-1.255 0.556-1.921 0.114-0.334 0.238-0.672 0.371-1.015 0.112 0.203 0.211 0.406 0.328 0.609 0.116 0.2 0.237 0.397 0.358 0.596 0.794 0.125 1.647 0.219 2.548 0.28-0.395-0.59-0.788-1.209-1.175-1.878-0.375-0.648-0.714-1.303-1.034-1.956 0.32-0.653 0.659-1.307 1.034-1.956 0.386-0.666 0.777-1.29 1.171-1.878 0.504-0.753 1.01-1.44 1.513-2.066 0.241-0.299 0.479-0.582 0.716-0.851 0.237 0.269 0.475 0.553 0.714 0.851 0.872 0.019 1.745 0.071 2.606 0.156-0.621-0.863-1.273-1.684-1.945-2.436 1.648-1.546 3.107-2.326 4.04-2.326 0.229 0 0.425 0.046 0.585 0.139 0.28 0.161 0.489 0.493 0.621 0.986 0.267 0.998 0.156 2.442-0.236 4.095-0.146 0.615-0.33 1.255-0.556 1.922-0.114 0.335-0.238 0.673-0.371 1.016-0.112-0.203-0.211-0.406-0.329-0.609-0.116-0.201-0.24-0.398-0.361-0.597-0.793-0.125-1.645-0.219-2.545-0.28 0.395 0.59 0.788 1.21 1.175 1.878 0.375 0.648 0.714 1.302 1.034 1.956-0.32 0.653-0.659 1.307-1.034 1.956-0.387 0.668-0.78 1.288-1.175 1.878-0.503 0.751-1.008 1.441-1.51 2.066-0.24 0.298-0.478 0.582-0.715 0.851-0.237-0.269-0.475-0.553-0.715-0.851-0.875-0.019-1.75-0.071-2.614-0.157 0.622 0.864 1.277 1.686 1.95 2.439-2.049 1.92-3.804 2.653-4.62 2.184z" fill="#2a80ad"/>
<path d="m15.998 10.088c-0.238 0-0.47684 0.008672-0.71484 0.013671-0.503 0.626-1.0077 1.3124-1.5117 2.0664 0.714-0.048 1.4516-0.080078 2.2266-0.080078 0.775-1e-3 1.5146 0.030125 2.2266 0.078125 0.9 0.061 1.7519 0.1543 2.5449 0.2793 0.366 0.058 0.71759 0.12241 1.0586 0.19141 0.226-0.666 0.41064-1.3059 0.55664-1.9219-0.982-0.202-2.0125-0.35303-3.0645-0.45703-0.862-0.085999-1.7335-0.13825-2.6055-0.15625-0.238-0.004999-0.4788-0.013671-0.7168-0.013671zm-3.3203 0.16992c-1.051 0.104-2.0825 0.25503-3.0645 0.45703-0.674 0.139-1.3225 0.30038-1.9395 0.48438-3.3 0.983-5.6738 2.5998-5.6738 4.8008s2.3738 3.8178 5.6738 4.8008c0.147-0.622 0.32592-1.2609 0.54492-1.9219-2.682-0.817-4.2188-1.9659-4.2188-2.8789s1.5368-2.061 4.2188-2.877c0.595-0.181 1.2472-0.34433 1.9512-0.48633 0.341-0.069 0.69455-0.13341 1.0605-0.19141 0.455-0.75 0.93927-1.4815 1.4473-2.1875zm11.648 0.94141c-0.147 0.622-0.32592 1.2609-0.54492 1.9219 2.682 0.817 4.2188 1.9659 4.2188 2.8789s-1.5368 2.061-4.2188 2.877c-0.595 0.181-1.2462 0.34433-1.9512 0.48633-0.341 0.069-0.69359 0.13245-1.0586 0.18945-0.454 0.749-0.93536 1.4845-1.4434 2.1895 1.049-0.104 2.0786-0.25503 3.0586-0.45703 0.674-0.139 1.3225-0.30038 1.9395-0.48438 3.3-0.982 5.6738-2.5998 5.6738-4.8008s-2.3738-3.8178-5.6738-4.8008zm-14.154 8.166c-0.226 0.666-0.41064 1.3049-0.55664 1.9199 0.98 0.202 2.0096 0.35203 3.0586 0.45703 0.862 0.085999 1.7363 0.1392 2.6113 0.1582 0.238 5e-3 0.47684 0.013672 0.71484 0.013671 0.238 0 0.47584-0.007671 0.71484-0.013671 0.502-0.624 1.0068-1.3144 1.5098-2.0664-0.713 0.048-1.4487 0.078125-2.2227 0.078125s-1.5126-0.030125-2.2246-0.078125c-0.902-0.061-1.7548-0.1543-2.5488-0.2793-0.365-0.057-0.71664-0.12145-1.0566-0.18945z" fill="#55c1fa"/>
<path d="m19 16a3 3 0 0 1-3 3 3 3 0 0 1-3-3 3 3 0 0 1 3-3 3 3 0 0 1 3 3z" fill="#f25949"/>
</g>
</svg>